<svg xmlns="http://www.w3.org/2000/svg" width="400" height="240" viewBox="0 0 400 240">
  <defs>
    <linearGradient id="bg" x1="0%" y1="0%" x2="100%" y2="100%">
      <stop offset="0%" stop-color="#92400e"/>
      <stop offset="100%" stop-color="#d97706"/>
    </linearGradient>
    <filter id="noise" x="0%" y="0%" width="100%" height="100%">
      <feTurbulence type="fractalNoise" baseFrequency="0.65" numOctaves="3" stitchTiles="stitch"/>
      <feColorMatrix type="saturate" values="0"/>
      <feBlend in="SourceGraphic" mode="overlay" result="blend"/>
      <feComposite in="blend" in2="SourceGraphic" operator="in"/>
    </filter>
  </defs>
  <!-- Background -->
  <rect width="400" height="240" fill="url(#bg)"/>
  <!-- Subtle diagonal lines texture -->
  <rect width="400" height="240" fill="none" stroke="rgba(255,255,255,0.04)" stroke-width="12"
        stroke-dasharray="1,18" transform="rotate(-30 200 120)"/>
  <!-- Icon -->
  <g transform="translate(200,105)" opacity="0.88">
    <!-- postcard body -->
    <rect x="-80" y="-48" width="160" height="105" rx="4" fill="rgba(255,255,255,0.42)"/>
    <!-- vertical divider -->
    <line x1="0" y1="-38" x2="0" y2="47" stroke="rgba(255,255,255,0.50)" stroke-width="1" stroke-dasharray="3,3"/>
    <!-- stamp box top-right -->
    <rect x="12" y="-38" width="28" height="28" rx="2" fill="rgba(255,255,255,0.28)" stroke="rgba(255,255,255,0.55)" stroke-width="1"/>
    <!-- address lines right side -->
    <rect x="12" y="2"  width="55" height="4" rx="2" fill="rgba(255,255,255,0.55)"/>
    <rect x="12" y="12" width="45" height="3" rx="2" fill="rgba(255,255,255,0.40)"/>
    <rect x="12" y="21" width="50" height="3" rx="2" fill="rgba(255,255,255,0.40)"/>
    <!-- image area left -->
    <rect x="-72" y="-38" width="60" height="70" rx="2" fill="rgba(255,255,255,0.22)"/>
    <polygon points="-72,32 -50,5 -28,32" fill="rgba(255,255,255,0.30)"/>
    <circle cx="-18" cy="-15" r="10" fill="rgba(255,255,255,0.28)"/>
  </g>
  <!-- Bottom gradient fade for text legibility -->
  <rect x="0" y="170" width="400" height="70" fill="rgba(0,0,0,0.28)"/>
  <!-- Label -->
<text x="200" y="219" font-family="system-ui,-apple-system,sans-serif" font-size="14" font-weight="600" fill="rgba(255,255,255,0.92)" text-anchor="middle" letter-spacing="0.01em">Postcards &amp; Rack Cards</text>

</svg>