<svg xmlns="http://www.w3.org/2000/svg" width="400" height="240" viewBox="0 0 400 240">
  <defs>
    <linearGradient id="bg" x1="0%" y1="0%" x2="100%" y2="100%">
      <stop offset="0%" stop-color="#9d174d"/>
      <stop offset="100%" stop-color="#f472b6"/>
    </linearGradient>
    <filter id="noise" x="0%" y="0%" width="100%" height="100%">
      <feTurbulence type="fractalNoise" baseFrequency="0.65" numOctaves="3" stitchTiles="stitch"/>
      <feColorMatrix type="saturate" values="0"/>
      <feBlend in="SourceGraphic" mode="overlay" result="blend"/>
      <feComposite in="blend" in2="SourceGraphic" operator="in"/>
    </filter>
  </defs>
  <!-- Background -->
  <rect width="400" height="240" fill="url(#bg)"/>
  <!-- Subtle diagonal lines texture -->
  <rect width="400" height="240" fill="none" stroke="rgba(255,255,255,0.04)" stroke-width="12"
        stroke-dasharray="1,18" transform="rotate(-30 200 120)"/>
  <!-- Icon -->
  <g transform="translate(200,105)" opacity="0.88">
    <!-- stamp handle -->
    <rect x="-18" y="-72" width="36" height="28" rx="6" fill="rgba(255,255,255,0.40)"/>
    <rect x="-10" y="-44" width="20" height="22" rx="2" fill="rgba(255,255,255,0.35)"/>
    <!-- stamp base with impression lines -->
    <rect x="-55" y="-25" width="110" height="48" rx="3" fill="rgba(255,255,255,0.42)"/>
    <!-- impression pattern on stamp face -->
    <rect x="-42" y="-15" width="84" height="5"  rx="2" fill="rgba(255,255,255,0.70)"/>
    <rect x="-42" y="-4"  width="65" height="3"  rx="2" fill="rgba(255,255,255,0.50)"/>
    <rect x="-42" y="4"   width="75" height="3"  rx="2" fill="rgba(255,255,255,0.50)"/>
    <!-- ink mark below -->
    <rect x="-55" y="28"  width="110" height="10" rx="2" fill="rgba(255,255,255,0.22)"/>
  </g>
  <!-- Bottom gradient fade for text legibility -->
  <rect x="0" y="170" width="400" height="70" fill="rgba(0,0,0,0.28)"/>
  <!-- Label -->
<text x="200" y="219" font-family="system-ui,-apple-system,sans-serif" font-size="14" font-weight="600" fill="rgba(255,255,255,0.92)" text-anchor="middle" letter-spacing="0.01em">Stamps</text>

</svg>