<svg xmlns="http://www.w3.org/2000/svg" width="400" height="240" viewBox="0 0 400 240">
  <defs>
    <linearGradient id="bg" x1="0%" y1="0%" x2="100%" y2="100%">
      <stop offset="0%" stop-color="#9d174d"/>
      <stop offset="100%" stop-color="#f472b6"/>
    </linearGradient>
    <filter id="noise" x="0%" y="0%" width="100%" height="100%">
      <feTurbulence type="fractalNoise" baseFrequency="0.65" numOctaves="3" stitchTiles="stitch"/>
      <feColorMatrix type="saturate" values="0"/>
      <feBlend in="SourceGraphic" mode="overlay" result="blend"/>
      <feComposite in="blend" in2="SourceGraphic" operator="in"/>
    </filter>
  </defs>
  <!-- Background -->
  <rect width="400" height="240" fill="url(#bg)"/>
  <!-- Subtle diagonal lines texture -->
  <rect width="400" height="240" fill="none" stroke="rgba(255,255,255,0.04)" stroke-width="12"
        stroke-dasharray="1,18" transform="rotate(-30 200 120)"/>
  <!-- Icon -->
  <g transform="translate(200,105)" opacity="0.88">
    <!-- outer frame -->
    <rect x="-72" y="-62" width="144" height="124" rx="5" fill="rgba(255,255,255,0.42)"/>
    <!-- inner mat -->
    <rect x="-58" y="-48" width="116" height="96" rx="3" fill="rgba(255,255,255,0.20)"/>
    <!-- canvas area -->
    <rect x="-48" y="-38" width="96" height="76" rx="2" fill="rgba(255,255,255,0.32)"/>
    <!-- landscape scene on canvas -->
    <rect x="-48" y="4"   width="96" height="34" rx="0 0 2 2" fill="rgba(255,255,255,0.18)"/>
    <polygon points="-48,4 -15,-30 18,4" fill="rgba(255,255,255,0.35)"/>
    <polygon points="18,4 42,-20 66,4" fill="rgba(255,255,255,0.28)"/>
    <circle cx="28" cy="-22" r="12" fill="rgba(255,255,255,0.28)"/>
    <!-- hanging wire -->
    <path d="M-20,-62 Q0,-74 20,-62" fill="none" stroke="rgba(255,255,255,0.50)" stroke-width="2" stroke-linecap="round"/>
  </g>
  <!-- Bottom gradient fade for text legibility -->
  <rect x="0" y="170" width="400" height="70" fill="rgba(0,0,0,0.28)"/>
  <!-- Label -->
<text x="200" y="212" font-family="system-ui,-apple-system,sans-serif" font-size="14" font-weight="600" fill="rgba(255,255,255,0.92)" text-anchor="middle" letter-spacing="0.01em">Wall Art (Canvas &amp;</text>
<text x="200" y="229" font-family="system-ui,-apple-system,sans-serif" font-size="14" font-weight="600" fill="rgba(255,255,255,0.92)" text-anchor="middle" letter-spacing="0.01em">Acrylic)</text>

</svg>